<?xml version="1.0" encoding="UTF-8"?>
<svg width="2692px" height="1536px" viewBox="0 0 2692 1536" version="1.1" xmlns="http://www.w3.org/2000/svg" xmlns:xlink="http://www.w3.org/1999/xlink">
    <g id="Logo+Text" stroke="none" stroke-width="1" fill="none" fill-rule="evenodd">
        <text id="JARVIS" font-family="FasterOne-Regular, Faster One" font-size="500" font-style="italic" font-weight="normal" letter-spacing="1" fill="#303136">
            <tspan x="267" y="1350">JARVI</tspan>
            <tspan x="2026.5" y="1350" letter-spacing="0.333333343">S</tspan>
        </text>
        <g id="Logo" transform="translate(835.000000, 0.000000)" stroke-linecap="round" stroke-linejoin="round">
            <path d="M871,670.632738 L871,351.367262 C870.970795,322.880865 855.769149,296.569295 831.111111,282.326103 L551.888889,122.693366 C527.205559,108.435545 496.794441,108.435545 472.111111,122.693366 L192.888889,282.326103 C168.230851,296.569295 153.029205,322.880865 153,351.367262 L153,670.632738 C153.029205,699.119135 168.230851,725.430705 192.888889,739.673897 L472.111111,899.306634 C496.794441,913.564455 527.205559,913.564455 551.888889,899.306634 L831.111111,739.673897 C855.769149,725.430705 870.970795,699.119135 871,670.632738 Z" id="BG" stroke="#303136" stroke-width="40"></path>
            <g id="Icon" stroke-width="1" fill-rule="evenodd" transform="translate(217.000000, 183.000000)" stroke="#4C9AE5">
                <g stroke-width="30">
                    <path d="M590,459.689774 L590,197.505693 C589.976002,174.112372 577.484398,152.505041 557.222222,140.808386 L327.777778,9.71634577 C307.494818,-1.992323 282.505182,-1.992323 262.222222,9.71634577 L32.7777778,140.808386 C12.5156018,152.505041 0.0239982087,174.112372 0,197.505693 L0,459.689774 C0.0239982087,483.083096 12.5156018,504.690427 32.7777778,516.387081 L262.222222,647.479122 C282.505182,659.18779 307.494818,659.18779 327.777778,647.479122 L557.222222,516.387081 C577.484398,504.690427 589.976002,483.083096 590,459.689774 Z" id="Path"></path>
                    <polyline id="Bottom" points="9.33544304 393.597734 295.466772 559.065156 581.598101 393.597734"></polyline>
                    <polyline id="Middle" points="9.33544304 283.597734 295.466772 449.065156 581.598101 283.597734"></polyline>
                    <polyline id="Top" points="9.33544304 163.597734 295.466772 329.065156 581.598101 163.597734"></polyline>
                    <path d="M296.400316,659.065156 L295.466772,328.597734" id="Path"></path>
                </g>
            </g>
        </g>
    </g>
</svg>